<svg width="115" height="33" fill="none" xmlns="http://www.w3.org/2000/svg"><path d="M0 12.87v2.57h2.46v-2.57H0zm11.65-8.34a4.5 4.5 0 00-3.62 1.73h-.08V0H5.92v15.44h2.03v-5.3c0-2.12 1.32-3.64 3.27-3.64 1.84 0 2.9 1.37 2.9 3.22v5.72h2.04V9.35c0-2.94-1.82-4.82-4.51-4.82zm14.97.3H21.8V1.07h-2.03v3.76h-1.93V6.8h1.93v5.98c0 1.72.96 2.66 2.7 2.66h4.14v-2h-3.74c-.69 0-1.07-.38-1.07-1.04V6.8h4.8V4.83zm14.5-.28a3.9 3.9 0 00-3.55 2.06h-.06a3.6 3.6 0 00-3.36-2.06 3.6 3.6 0 00-3.12 1.8h-.08V4.83H29v10.61h2.03V10c0-2 1.05-3.46 2.63-3.5 1.5-.04 2.37 1.03 2.37 2.64v6.3h2.04V9.82c0-2.38 1.4-3.32 2.62-3.32 1.48 0 2.36 1.03 2.36 2.64v6.3h2.03V8.92c0-2.57-1.46-4.37-3.96-4.37zm6.71 8.15c0 1.73.98 2.74 2.8 2.74h2v-1.97h-1.7c-.69 0-1.07-.39-1.07-1.05V0h-2.03v12.7zM28.9 19.69h-.08a4.64 4.64 0 00-3.8-1.83c-3.14-.05-5.39 2.28-5.39 5.56 0 3.3 2.3 5.63 5.38 5.59a4.53 4.53 0 003.8-1.94h.1v1.64h2V18.15h-2v1.54zm-3.6 7.36a3.5 3.5 0 01-3.63-3.63c0-2 1.41-3.62 3.64-3.62a3.48 3.48 0 013.57 3.62 3.5 3.5 0 01-3.57 3.63zM44.2 22c-.48-2.4-2.6-4.14-5.39-4.14a5.4 5.4 0 00-5.6 5.56 5.42 5.42 0 005.6 5.59c2.79 0 4.9-1.8 5.4-4.2h-2.12a3.32 3.32 0 01-3.25 2.26 3.5 3.5 0 01-3.6-3.65c0-2 1.41-3.62 3.6-3.62 1.62 0 2.82.95 3.25 2.2h2.12zm10.88-2.31H55a4.64 4.64 0 00-3.8-1.83c-3.14-.05-5.39 2.28-5.39 5.56 0 3.3 2.3 5.63 5.38 5.59a4.53 4.53 0 003.8-1.94h.1v1.64h2V18.15h-2v1.54zm-3.6 7.36a3.5 3.5 0 01-3.63-3.63c0-2 1.41-3.62 3.64-3.62a3.48 3.48 0 013.57 3.62 3.5 3.5 0 01-3.57 3.63zm17.17-7.25h-.08a4.62 4.62 0 00-3.81-1.95c-3.09-.04-5.38 2.29-5.38 5.6 0 3.28 2.25 5.6 5.4 5.56 1.67-.02 3-.77 3.77-1.84h.1v1.54h2.02V13.36h-2.02v6.44zm-3.6 7.27a3.5 3.5 0 01-3.63-3.63c0-2 1.41-3.62 3.64-3.62a3.5 3.5 0 013.57 3.62c0 2-1.41 3.63-3.57 3.63zm13.28-9.21a5.4 5.4 0 00-5.48 5.58c0 3 2.1 5.57 5.52 5.57 2.49 0 4.48-1.35 5.18-3.59h-2.12c-.47 1-1.6 1.65-2.97 1.65-1.93 0-3.3-1.28-3.45-2.92h8.76c.28-3.52-1.93-6.3-5.44-6.3zm-.04 1.94a3.2 3.2 0 013.27 2.55h-6.5a3.18 3.18 0 013.23-2.55zm19.91-1.92a3.9 3.9 0 00-3.56 2.04h-.06a3.6 3.6 0 00-3.36-2.04 3.6 3.6 0 00-3.13 1.79h-.08v-1.52h-1.95v10.56h2.03v-5.42c0-1.98 1.05-3.43 2.64-3.47 1.5-.05 2.37 1.02 2.37 2.62v6.27h2.04v-5.59c0-2.37 1.41-3.3 2.63-3.3 1.48 0 2.36 1.02 2.36 2.62v6.27h2.03v-6.48c0-2.56-1.46-4.35-3.96-4.35zm11.24 9.14l-3.64-8.87h-2.25l4.84 11.56-.02.04c-.34.88-.73 1.2-1.67 1.2h-2.5v2.02h2.5c1.84 0 2.83-.83 3.51-2.62l4.67-12.2h-2.08l-3.36 8.87z" fill="#000"/></svg>